<svg viewBox="0 0 55.549 18.479" preserveAspectRatio="xMidYMid meet" xmlns="http://www.w3.org/2000/svg"><path fill="white" d="M6.808 10.886h-.255Q3.287 9.033 2.115 9.033q-.234 0-.386.076.242-1.24 1.261-1.24.558 0 1.482.372.923.365 1.86 1.054l.014-.317q0-.696-.262-1.502-.324-.992-1.226-1.571-.896-.579-2.012-.724.682-.806 1.653-.806 1.006 0 1.73.69.723.681 1.006 2.039.096.461.096 1.026 0 1.558-.523 2.756zm-4.665 3.48q-1.068-.579-1.606-1.337Q0 12.271 0 11.445q0-.49.296-.896.303-.414 1.082-.551.18-.035.393-.035 1.357 0 2.852.834 1.502.834 1.978 1.964l.014.186q0 .24-.152.42-.152.186-.413.234-.758-.93-1.902-1.57-1.137-.642-1.792-.642-.117 0-.22.021l-.034.007q-.607.124-.607.758l.014.172.02.138q.132.737.793 1.716zM13.057 12.471h-.255q-1.013-.523-1.681-.91-.772.717-1.564.724-.372 0-.552-.207-.179-.213-.179-.482 0-.234.166-.503.448-.71 1.832-.944.862-1.357.862-2.218 0-.58-.717-.58-.585 0-.964.559-.38.558-.38 1.35 0 .6.407.6v.213q-.248.07-.496.07-1.137 0-1.137-1.344v-.097q.097-1.157.861-1.95.772-.792 1.868-.792 1.06 0 1.557.393.503.386.503 1.268 0 .964-1.054 2.797l-.124.165q.248.2.571.297l.221-.366 1.454-2.687q.255-.42.482-.868.737-.999 1.95-.999 1.44 0 2.198.861l-.572 1.15-1.371 2.667q-.765 1.592-2.205 1.592-.262 0-.31-.138.255-.358.648-1.088l1.66-3.108.317-.648q-.172-.103-.351-.103-.496 0-.903.827l-1.288 2.467q-1.061 2.018-1.454 2.032zM13.091 5.63q-1.274 0-2.673-.476-1.916-.648-1.916-1.544.09-1.164 1.888-2.315Q12.416 0 15.13 0q1.262 0 1.971.413.71.414.71 1.172 0 1.144-1.364 1.757-.84.379-1.406.379-.296 0-.489-.117.758-.331 1.31-.751.544-.42.544-.71 0-.255-.441-.455-.441-.207-1.137-.207-.614 0-1.385.173-1.874.344-2.625.916-.758.572-.758.84 0 .697 3.266 1.24l1.591.29q-.668.69-1.826.69zM26.948 12.285q-1.22-.014-1.22-1.867-.034-.503-.407-.8-.75 1.455-2.129 1.455-.268 0-.317-.138.255-.359.648-1.089l1.089-2.019q.096-.234.096-.372 0-.207-.207-.207-.51 0-1.405 1.854-.51.903-.53 1.826 0 .937.675 1.068v.213q-.248.07-.496.07-1.447 0-1.447-1.723 0-1.406 1.074-2.929 1.075-1.53 2.495-1.53.634 0 1.033.325.4.323.4.86 0 .311-.138.69l-.572 1.116.469.104q.51-1.592 1.53-2.412 1.02-.82 2.39-.82 1.495 0 2.13.675.454-.675 1.33-.675 1.184 0 1.949.861l-.579 1.15-1.37 2.667q-.759 1.592-2.206 1.592-.262 0-.31-.138.255-.358.648-1.088l1.66-3.108.324-.648q-.172-.103-.358-.103-.476 0-.861.758l-1.413 2.735q-.758 1.592-2.198 1.592-.269 0-.317-.138.255-.358.648-1.088l1.66-3.108.207-.413q-.337-.131-.902-.131-.93 0-1.695.654-.758.648-1 1.799.614.847.614 1.467 0 .42-.248.717-.241.296-.744.296z"/><path fill="white" d="M21.587 15.496q-.682 0-1.323-.214-2.019-.675-2.019-2.866 0-1.027.51-2.122l1.75-4.038q.751-1.578 2.053-2.542 1.296-.972 3.156-.972l.283.007q1.054.042 1.584.338l-.117.317q-.468-.07-.895-.07-2.936 0-4.417 3.067l-1.97 4.568q-.297.758-.297 1.35.041 1.365 1.62 1.71.371.055.723.055 2.315 0 5.925-1.372.076.173.076.324 0 .234-.186.427-1.64.979-3.06 1.454-1.419.483-3.08.565zM31.633 3.72q.468-.62.468-1.315v-.076l-.013-.159q-.159-.51-.869-.51-.668 0-.992.366-.33.358-.33.758v.069q.055.778 1.736.868zm-.414 1.696q-.51-.055-.792-.352l.772-.744h-.035q-2.177 0-2.473-1.364l-.014-.117-.007-.124q0-.972.675-1.64.669-.668 1.847-.682 2.143.069 2.246 1.826l.007.158q0 .903-.792 2.033-.641.902-1.434 1.006zM38.44 9.68l.262-1.853q.097-.234.097-.372 0-.207-.207-.207-.51 0-1.406 1.854-.51.903-.53 1.826 0 .937.675 1.068v.213q-.248.07-.496.07-1.447 0-1.447-1.723 0-1.406 1.075-2.929 1.075-1.53 2.494-1.53.634 0 1.034.325.4.323.4.86 0 .311-.139.69zm1.723 2.791h-.255q-2.26-1.164-2.811-1.66l1.612-2.984 1.543.145-1.288 2.467q.296.317.723.44l.221-.365 1.454-2.687q.255-.42.482-.868.737-.999 1.95-.999 1.44 0 2.198.861l-.572 1.15-1.371 2.667q-.765 1.592-2.205 1.592-.262 0-.31-.138.255-.358.648-1.088l1.66-3.108.317-.648q-.172-.103-.351-.103-.496 0-.903.827l-1.288 2.467q-1.061 2.018-1.454 2.032z"/><path fill="white" d="M44.207 18.48h-.075q-.848-.448-.848-1.275 0-.42.159-.944-1.44 1.178-2.97 1.178-1.13 0-1.791-.6-.669-.592-.717-1.619 0-1.309.806-1.99.806-.676 2.04-.676 1.13 0 1.619.524.482.523.268 1.02-.661-.345-1.474-.345-.806 0-1.268.337-.468.345-.468.958 0 1.04 1.412 1.04 2.047 0 2.956-1.97 3.314-7.186 3.976-8.261.957.682.957 1.185 0 .344-.268.847-.462.848-1.874 4.031-1.406 3.176-1.923 4.864zM49.244 10.61q.076-1.274.806-2.797.262-.558.572-.999.889-1.274 1.874-1.812.986-.544 1.909-.358.896.18 1.144 1.096-1.096-.062-2.123.344-1.026.4-1.646 1.226-.62.827-.944 1.516.978-.434 1.895-.64.916-.214 1.426-.11.937.185.579 1.446-.104-.103-.317-.144-1.358-.38-5.003 1.426Zm2.57 4.073q1.061-.834 1.53-1.537l.082-.13.09-.166q.296-.902-.2-1.13l-.027-.014q-.083-.04-.193-.062-.6-.117-1.95.51-1.344.627-2.336 1.399-.358-.234-.413-.441-.055-.207.062-.44l.096-.18q1.213-1.15 2.894-1.757 1.681-.613 2.853-.386.192.041.344.11.648.276.73.84.09.559-.22 1.234-.31.682-1.158 1.33-.847.648-2.101 1.02z"/></svg>